<?xml version="1.0" encoding="UTF-8" standalone="no"?>
<!DOCTYPE svg PUBLIC "-//W3C//DTD SVG 1.1//EN" "http://www.w3.org/Graphics/SVG/1.1/DTD/svg11.dtd">
<svg width="100%" height="100%" viewBox="0 0 806 218" version="1.1" xmlns="http://www.w3.org/2000/svg" xmlns:xlink="http://www.w3.org/1999/xlink" xml:space="preserve" xmlns:serif="http://www.serif.com/" style="fill-rule:evenodd;clip-rule:evenodd;stroke-linejoin:round;stroke-miterlimit:2;">
    <g transform="matrix(1,0,0,1,-64,-1024)">
        <g id="Horizontal" transform="matrix(1,0,0,0.992806,-32,840.763)">
            <rect x="32" y="106" width="948" height="417" style="fill:none;"/>
            <g transform="matrix(0.586708,0,0,0.590959,-3772.12,-1180.62)">
                <path d="M6765.15,2642.8C6732.32,2653.03 6724.35,2668.99 6695.02,2668.99C6642.6,2668.99 6603.44,2596.45 6603.44,2518.23C6603.44,2440.02 6652.11,2387.41 6704.52,2387.41C6731.73,2387.41 6755.79,2405.88 6768.78,2403.7C6779.88,2401.84 6777.88,2388.19 6776.09,2379.14C6774.53,2371.31 6765.88,2329.97 6771.75,2326.7C6779.63,2318.32 6802.87,2318.66 6806.27,2322.1C6809.66,2325.53 6800.97,2332.76 6792.14,2347.29C6787.96,2353.76 6789.41,2396.31 6801.6,2403.06C6813.79,2409.8 6841.63,2387.76 6865.28,2387.76C6917.7,2387.76 6963.97,2437.16 6963.97,2515.37C6963.97,2592.22 6943.11,2668.99 6886.41,2668.99C6865.56,2668.99 6845.33,2650.62 6812.95,2643.7C6812.95,2634.37 6812.45,2628.62 6812.55,2610.49C6813.67,2593.12 6823.9,2589.37 6830.34,2573.2C6830.82,2571.82 6839.01,2534.22 6840.62,2520.75C6841.67,2511.97 6842.01,2504.18 6842.01,2504.18C6850.48,2477.34 6854.75,2454.99 6856.76,2448.56C6856.96,2447.94 6859.36,2442.64 6853.06,2439.87C6851.01,2438.96 6847.49,2440.93 6846.59,2441.57C6841.47,2445.22 6829.32,2488.81 6825,2496.27C6823.31,2499.19 6816.71,2495.85 6816.79,2492.8C6817.12,2480.47 6819.6,2437.76 6821.05,2422.26C6821.77,2417.52 6815.58,2414.14 6810.69,2416.34C6809.2,2417.01 6807.84,2418.2 6806.82,2420.02C6803.15,2430.25 6798.89,2466.32 6796.01,2483.93C6795.91,2484.52 6795.36,2490.44 6791.97,2490.2C6789.97,2490.05 6788.2,2489.04 6787.41,2484.77C6785.27,2473.19 6780.59,2439.99 6776.63,2417.62C6773.05,2411.22 6763.96,2411.77 6761.3,2420.53C6761.3,2420.53 6765.63,2478.4 6766.58,2492.45C6766.55,2493.9 6765.81,2495.14 6764.87,2495.68C6763.66,2496.38 6759.47,2496.85 6758.22,2493.61C6753.08,2480.25 6746.55,2451.7 6743.04,2440.35C6739.93,2430.28 6727.79,2433.78 6727.79,2443.07C6727.79,2443.07 6737.14,2481.88 6741.12,2506.85C6744.52,2528.18 6743.65,2539.93 6743.66,2540.01C6744.24,2544.89 6740.76,2545.18 6739.78,2543.61C6728.32,2530.4 6716.88,2524.36 6708.22,2520.41C6702.49,2517.8 6684.24,2516.84 6686.4,2526.87C6686.95,2529.4 6706.18,2535.64 6720.83,2553.65C6738.84,2580.76 6753.71,2592.85 6761.35,2599.84C6762.82,2601.24 6765.09,2606.13 6765.16,2608.48C6765.16,2608.48 6765.19,2628.21 6765.15,2642.8ZM6811.44,2533.14L6792.62,2575.51C6790.24,2578.69 6787.31,2578.61 6785.07,2575.45L6762.21,2537.09C6754.17,2526.55 6758.22,2518.98 6761.01,2516.19C6771.26,2505.94 6782.3,2520.8 6786.22,2524.67C6787.59,2514.1 6797.97,2500.64 6811.62,2511.43C6818.52,2516.89 6815.9,2523.32 6811.44,2533.14Z" style="fill:rgb(223,52,124);"/>
            </g>
            <g transform="matrix(0.379951,0,0,0.919495,152.268,-410.873)">
                <path d="M576.342,746.606L580.137,758.059L580.374,758.059L584.407,746.408L618.566,700.301L628.055,700.301L662.451,746.606L666.484,758.059L666.721,758.059L670.991,746.408L698.982,700.301L718.197,700.301L671.94,770.499L661.028,770.499L627.343,724.194L623.073,713.728L621.887,713.728L617.617,724.292L583.933,770.499L573.021,770.499L525.578,700.301L546.453,700.301L576.342,746.606Z" style="fill:rgb(223,52,124);fill-rule:nonzero;"/>
                <path d="M721.755,744.73C721.755,736.371 726.222,729.969 735.158,725.527C744.093,721.084 756.942,718.862 773.705,718.862C782.561,718.862 790.271,719.471 796.834,720.689C803.397,721.906 808.813,723.651 813.083,725.921C817.353,728.192 820.516,730.924 822.572,734.116C824.627,737.309 825.655,740.846 825.655,744.73C825.655,753.089 821.188,759.49 812.253,763.933C803.318,768.376 790.468,770.598 773.705,770.598C764.849,770.598 757.14,769.989 750.577,768.771C744.014,767.553 738.597,765.809 734.327,763.538C730.057,761.267 726.895,758.536 724.839,755.344C722.783,752.151 721.755,748.613 721.755,744.73ZM741.444,744.73C741.444,747.231 742.037,749.634 743.223,751.937C744.409,754.241 746.267,756.249 748.797,757.96C751.328,759.671 754.649,761.054 758.761,762.107C762.872,763.16 767.854,763.686 773.705,763.686C795.213,763.752 805.966,757.433 805.966,744.73C805.966,742.163 805.373,739.727 804.187,737.424C803.001,735.12 801.143,733.112 798.613,731.401C796.082,729.69 792.761,728.324 788.65,727.304C784.538,726.283 779.556,725.773 773.705,725.773C752.198,725.708 741.444,732.026 741.444,744.73Z" style="fill:rgb(223,52,124);fill-rule:nonzero;"/>
                <path d="M911.527,727.649C906.783,726.991 902.276,726.662 898.006,726.662C891.206,726.662 885.829,727.435 881.875,728.982C877.922,730.529 875.471,732.487 874.522,734.857L874.522,769.413L855.544,769.413L855.544,720.047L868.829,720.047L872.387,726.07L873.336,726.07C876.34,723.832 879.938,722.104 884.129,720.886C888.32,719.668 893.657,719.06 900.141,719.06C904.727,719.06 909.867,719.389 915.56,720.047L911.527,727.649Z" style="fill:rgb(223,52,124);fill-rule:nonzero;"/>
                <path d="M957.31,757.269C957.31,759.573 958.259,761.218 960.157,762.205C962.054,763.193 964.743,763.686 968.222,763.686C970.278,763.686 972.492,763.621 974.864,763.489C977.236,763.357 979.924,763.061 982.929,762.6L985.064,768.82C982.534,769.347 979.015,769.775 974.508,770.104C970.001,770.433 966.087,770.598 962.766,770.598C955.649,770.598 949.798,769.758 945.212,768.08C940.626,766.402 938.333,763.555 938.333,759.54L938.333,700.301L957.31,700.301L957.31,757.269Z" style="fill:rgb(223,52,124);fill-rule:nonzero;"/>
                <path d="M1096.56,752.431C1096.56,755.788 1096.63,758.832 1096.79,761.564C1096.95,764.295 1097.66,766.977 1098.93,769.61L1086.12,769.61L1081.37,762.6L1080.42,762.6C1077.26,764.904 1072.68,766.813 1066.67,768.327C1060.66,769.841 1053.62,770.598 1045.55,770.598C1029.74,770.598 1018,768.524 1010.33,764.378C1002.66,760.231 998.823,753.747 998.823,744.927C998.823,736.502 1003.61,730.101 1013.17,725.724C1022.74,721.347 1035.91,719.158 1052.67,719.158C1058.52,719.158 1063.15,719.29 1066.55,719.553C1069.95,719.817 1073.62,720.244 1077.58,720.837L1077.58,700.301L1096.56,700.301L1096.56,752.431ZM1048.64,763.686C1056.7,763.686 1063.11,762.814 1067.85,761.07C1072.6,759.326 1075.84,756.676 1077.58,753.122L1077.58,728.637C1074.73,727.715 1071.49,727.057 1067.85,726.662C1064.21,726.267 1059.39,726.07 1053.38,726.07C1042.47,726.07 1033.93,727.567 1027.76,730.562C1021.6,733.557 1018.51,738.345 1018.51,744.927C1018.51,747.626 1019.02,750.127 1020.05,752.431C1021.08,754.735 1022.78,756.709 1025.15,758.355C1027.53,760 1030.65,761.3 1034.52,762.255C1038.4,763.209 1043.1,763.686 1048.64,763.686Z" style="fill:rgb(223,52,124);fill-rule:nonzero;"/>
                <path d="M1304.59,766.55C1299.85,768.064 1293.84,769.117 1286.57,769.709C1279.29,770.301 1271.54,770.598 1263.32,770.598C1253.36,770.598 1244.02,769.89 1235.33,768.475C1226.63,767.06 1219.04,764.904 1212.55,762.008C1206.07,759.112 1200.93,755.409 1197.13,750.901C1193.34,746.392 1191.44,741.044 1191.44,734.857C1191.44,728.406 1193.54,722.927 1197.73,718.418C1201.92,713.909 1207.45,710.223 1214.33,707.36C1221.21,704.497 1228.92,702.407 1237.46,701.09C1246,699.774 1254.7,699.116 1263.56,699.116C1273.04,699.116 1280.79,699.33 1286.8,699.758C1292.81,700.185 1297.95,700.761 1302.22,701.485L1297.48,708.693C1289.89,707.179 1279.05,706.422 1264.98,706.422C1258.5,706.422 1252.09,706.916 1245.76,707.903C1239.44,708.89 1233.79,710.503 1228.8,712.741C1223.82,714.979 1219.83,717.908 1216.82,721.528C1213.82,725.148 1212.32,729.591 1212.32,734.857C1212.32,739.596 1213.74,743.743 1216.59,747.297C1219.43,750.851 1223.35,753.813 1228.33,756.183C1233.31,758.552 1239.16,760.33 1245.88,761.514C1252.6,762.699 1259.92,763.291 1267.83,763.291C1274.94,763.291 1281.15,762.995 1286.45,762.403C1291.74,761.81 1296.21,761.054 1299.85,760.132L1304.59,766.55Z" style="fill:rgb(223,52,124);fill-rule:nonzero;"/>
                <path d="M1316.93,744.73C1316.93,736.371 1321.4,729.969 1330.33,725.527C1339.27,721.084 1352.12,718.862 1368.88,718.862C1377.74,718.862 1385.44,719.471 1392.01,720.689C1398.57,721.906 1403.99,723.651 1408.26,725.921C1412.53,728.192 1415.69,730.924 1417.75,734.116C1419.8,737.309 1420.83,740.846 1420.83,744.73C1420.83,753.089 1416.36,759.49 1407.43,763.933C1398.49,768.376 1385.64,770.598 1368.88,770.598C1360.02,770.598 1352.31,769.989 1345.75,768.771C1339.19,767.553 1333.77,765.809 1329.5,763.538C1325.23,761.267 1322.07,758.536 1320.01,755.344C1317.96,752.151 1316.93,748.613 1316.93,744.73ZM1336.62,744.73C1336.62,747.231 1337.21,749.634 1338.4,751.937C1339.58,754.241 1341.44,756.249 1343.97,757.96C1346.5,759.671 1349.82,761.054 1353.93,762.107C1358.05,763.16 1363.03,763.686 1368.88,763.686C1390.39,763.752 1401.14,757.433 1401.14,744.73C1401.14,742.163 1400.55,739.727 1399.36,737.424C1398.17,735.12 1396.32,733.112 1393.79,731.401C1391.26,729.69 1387.93,728.324 1383.82,727.304C1379.71,726.283 1374.73,725.773 1368.88,725.773C1347.37,725.708 1336.62,732.026 1336.62,744.73Z" style="fill:rgb(223,52,124);fill-rule:nonzero;"/>
                <path d="M1467.8,720.047L1467.8,748.185C1467.8,750.753 1468.15,753.007 1468.87,754.949C1469.58,756.89 1470.8,758.503 1472.54,759.786C1474.28,761.07 1476.65,762.041 1479.66,762.699C1482.66,763.357 1486.46,763.686 1491.05,763.686C1495.32,763.686 1499.11,763.407 1502.43,762.847C1505.75,762.288 1508.72,761.514 1511.33,760.527C1513.94,759.54 1516.23,758.404 1518.21,757.121C1520.18,755.837 1521.8,754.471 1523.07,753.023L1523.07,720.047L1542.05,720.047L1542.05,755.393C1542.05,757.762 1542.24,760.214 1542.64,762.748C1543.04,765.283 1543.71,767.504 1544.66,769.413L1531.61,769.413L1526.86,761.613L1525.68,761.613C1522.04,764.18 1517.14,766.319 1510.97,768.031C1504.8,769.742 1496.98,770.598 1487.49,770.598C1481.16,770.598 1475.59,770.285 1470.76,769.66C1465.94,769.034 1461.91,767.932 1458.66,766.352C1455.42,764.772 1452.97,762.65 1451.31,759.984C1449.65,757.318 1448.82,753.945 1448.82,749.864L1448.82,720.047L1467.8,720.047Z" style="fill:rgb(223,52,124);fill-rule:nonzero;"/>
                <path d="M1654.72,769.413L1654.72,741.274C1654.72,736.14 1652.94,732.273 1649.39,729.673C1645.83,727.073 1639.31,725.773 1629.82,725.773C1621.43,725.773 1614.52,726.711 1609.06,728.587C1603.6,730.463 1599.77,732.816 1597.56,735.647L1597.56,769.413L1578.58,769.413L1578.58,720.047L1591.86,720.047L1595.42,726.07L1596.37,726.07C1600.16,723.963 1605.26,722.235 1611.67,720.886C1618.07,719.537 1625.7,718.862 1634.56,718.862C1641.04,718.862 1646.74,719.175 1651.64,719.8C1656.54,720.425 1660.61,721.528 1663.86,723.108C1667.1,724.687 1669.55,726.81 1671.21,729.476C1672.87,732.142 1673.7,735.515 1673.7,739.596L1673.7,769.413L1654.72,769.413Z" style="fill:rgb(223,52,124);fill-rule:nonzero;"/>
                <path d="M1789.23,766.155C1784.48,767.603 1778.87,768.705 1772.38,769.462C1765.9,770.219 1759.1,770.598 1751.98,770.598C1742.81,770.598 1735.06,769.989 1728.74,768.771C1722.41,767.553 1717.23,765.809 1713.2,763.538C1709.16,761.267 1706.24,758.536 1704.42,755.344C1702.6,752.151 1701.69,748.613 1701.69,744.73C1701.69,736.371 1706.12,729.969 1714.98,725.527C1723.83,721.084 1736.56,718.862 1753.17,718.862C1760.76,718.862 1767.2,719.109 1772.5,719.603C1777.8,720.096 1782.58,720.804 1786.85,721.725L1781.4,728.538C1777.76,727.682 1773.73,727.008 1769.3,726.514C1764.87,726.02 1760.13,725.773 1755.07,725.773C1732.61,725.773 1721.38,732.092 1721.38,744.73C1721.38,747.231 1721.97,749.617 1723.16,751.888C1724.35,754.159 1726.32,756.166 1729.09,757.911C1731.86,759.655 1735.5,761.054 1740,762.107C1744.51,763.16 1750.08,763.686 1756.73,763.686C1762.42,763.686 1767.52,763.324 1772.03,762.6C1776.53,761.876 1780.21,761.054 1783.06,760.132L1789.23,766.155Z" style="fill:rgb(223,52,124);fill-rule:nonzero;"/>
                <path d="M1819.35,720.047L1838.33,720.047L1838.33,769.413L1819.35,769.413L1819.35,720.047ZM1815.32,705.04C1815.32,703.526 1816.54,702.226 1819,701.14C1821.45,700.054 1824.57,699.511 1828.37,699.511C1832.16,699.511 1835.4,700.054 1838.09,701.14C1840.78,702.226 1842.12,703.526 1842.12,705.04C1842.12,706.554 1840.78,707.804 1838.09,708.791C1835.4,709.779 1832.16,710.272 1828.37,710.272C1824.57,710.272 1821.45,709.779 1819,708.791C1816.54,707.804 1815.32,706.554 1815.32,705.04Z" style="fill:rgb(223,52,124);fill-rule:nonzero;"/>
                <path d="M1900,757.269C1900,759.573 1900.95,761.218 1902.85,762.205C1904.75,763.193 1907.44,763.686 1910.92,763.686C1912.97,763.686 1915.19,763.621 1917.56,763.489C1919.93,763.357 1922.62,763.061 1925.62,762.6L1927.76,768.82C1925.23,769.347 1921.71,769.775 1917.2,770.104C1912.69,770.433 1908.78,770.598 1905.46,770.598C1898.34,770.598 1892.49,769.758 1887.91,768.08C1883.32,766.402 1881.03,763.555 1881.03,759.54L1881.03,700.301L1900,700.301L1900,757.269Z" style="fill:rgb(223,52,124);fill-rule:nonzero;"/>
                <path d="M542.657,784.223L673.916,784.223L673.916,800.283L585.989,800.283L585.989,823.057L666.958,823.057L666.958,839.118L585.989,839.118L585.989,876.372L542.657,876.372L542.657,784.223Z" style="fill:rgb(223,52,124);fill-rule:nonzero;"/>
                <path d="M694.791,843.462C694.791,832.316 701.328,823.737 714.401,817.726C727.474,811.714 745.819,808.708 769.435,808.708C782.087,808.708 793.051,809.542 802.329,811.209C811.607,812.877 819.303,815.224 825.418,818.252C831.533,821.28 836.119,824.944 839.177,829.244C842.234,833.545 843.763,838.284 843.763,843.462C843.763,854.607 837.279,863.186 824.311,869.198C811.343,875.21 793.051,878.215 769.435,878.215C756.784,878.215 745.819,877.382 736.541,875.714C727.264,874.047 719.515,871.699 713.294,868.671C707.074,865.644 702.435,861.979 699.378,857.679C696.32,853.379 694.791,848.64 694.791,843.462ZM737.174,843.462C737.174,846.358 737.807,849.035 739.072,851.492C740.337,853.949 742.235,856.099 744.765,857.942C747.295,859.785 750.616,861.212 754.728,862.221C758.84,863.23 763.742,863.735 769.435,863.735C780.189,863.735 788.202,862.111 793.473,858.864C798.745,855.617 801.38,850.483 801.38,843.462C801.38,837.406 798.955,832.513 794.106,828.784C789.256,825.054 781.032,823.189 769.435,823.189C759.314,823.189 751.407,824.769 745.714,827.928C740.021,831.087 737.174,836.265 737.174,843.462Z" style="fill:rgb(223,52,124);fill-rule:nonzero;"/>
                <g transform="matrix(1,0,0,1,16.8602,0)">
                    <path d="M959.524,826.612C952.987,825.646 947.083,825.163 941.812,825.163C934.432,825.163 928.264,825.975 923.309,827.599C918.354,829.222 915.033,831.307 913.346,833.852L913.346,876.372L872.229,876.372L872.229,810.551L904.174,810.551L908.918,819.24L910.183,819.24C913.768,815.992 918.617,813.491 924.732,811.736C930.847,809.981 938.016,809.103 946.24,809.103C951.722,809.103 957.943,809.586 964.901,810.551L959.524,826.612Z" style="fill:rgb(223,52,124);fill-rule:nonzero;"/>
                </g>
                <path d="M1188.52,837.801L1107.55,837.801L1107.55,876.372L1064.21,876.372L1064.21,784.223L1107.55,784.223L1107.55,821.741L1188.52,821.741L1188.52,784.223L1231.85,784.223L1231.85,876.372L1188.52,876.372L1188.52,837.801Z" style="fill:rgb(223,52,124);fill-rule:nonzero;"/>
                <path d="M1395.68,870.712C1389.36,872.818 1380.77,874.595 1369.91,876.043C1359.05,877.491 1347.5,878.215 1335.27,878.215C1309.76,878.215 1291.1,875.122 1279.29,868.935C1267.48,862.747 1261.58,854.256 1261.58,843.462C1261.58,831.877 1268.22,823.189 1281.5,817.397C1294.79,811.604 1313.45,808.708 1337.49,808.708C1345.5,808.708 1353.3,809.147 1360.89,810.025C1368.48,810.902 1375.23,812.35 1381.13,814.369C1387.04,816.387 1391.78,819.108 1395.37,822.531C1398.95,825.953 1400.75,830.21 1400.75,835.3C1400.75,837.143 1400.48,839.118 1399.95,841.224C1399.43,843.33 1398.64,845.524 1397.58,847.806L1302.7,847.806C1303.33,853.335 1306.76,857.504 1312.98,860.312C1319.19,863.12 1329.26,864.525 1343.18,864.525C1351.83,864.525 1359.58,863.976 1366.43,862.879C1373.28,861.782 1378.5,860.663 1382.08,859.522L1395.68,870.712ZM1336.86,822.399C1326.1,822.399 1318.14,823.737 1312.98,826.414C1307.81,829.091 1304.7,832.667 1303.64,837.143L1362.47,837.143C1363.32,832.404 1361.58,828.762 1357.26,826.217C1352.93,823.672 1346.13,822.399 1336.86,822.399Z" style="fill:rgb(223,52,124);fill-rule:nonzero;"/>
                <path d="M1428.89,814.369C1437.33,812.789 1447.34,811.538 1458.94,810.617C1470.54,809.695 1482.66,809.235 1495.32,809.235C1506.28,809.235 1515.45,809.783 1522.83,810.88C1530.21,811.977 1536.06,813.535 1540.39,815.554C1544.71,817.572 1547.77,819.986 1549.56,822.794C1551.35,825.602 1552.25,828.762 1552.25,832.272C1552.25,836.134 1551.93,840.017 1551.3,843.923C1550.66,847.828 1550.3,851.667 1550.19,855.441C1550.09,859.215 1550.35,862.879 1550.98,866.433C1551.61,869.988 1553.19,873.345 1555.73,876.504L1522.2,876.504L1515.56,867.421L1513.98,867.421C1509.76,870.141 1503.91,872.489 1496.42,874.464C1488.94,876.438 1479.29,877.426 1467.48,877.426C1460.1,877.426 1453.46,876.965 1447.56,876.043C1441.65,875.122 1436.59,873.805 1432.37,872.094C1428.16,870.383 1424.89,868.364 1422.57,866.038C1420.25,863.713 1419.09,861.102 1419.09,858.206C1419.09,854.169 1421.25,850.768 1425.57,848.003C1429.9,845.239 1436.12,843.001 1444.23,841.29C1452.35,839.578 1462.05,838.394 1473.33,837.735C1484.61,837.077 1497.21,836.88 1511.13,837.143C1512.61,832.228 1511.76,828.696 1508.6,826.546C1505.44,824.396 1498.37,823.32 1487.41,823.32C1479.18,823.32 1470.49,823.672 1461.31,824.374C1452.14,825.076 1444.6,825.997 1438.7,827.138L1428.89,814.369ZM1481.08,863.34C1489.31,863.34 1495.84,862.572 1500.69,861.036C1505.54,859.5 1509.13,857.855 1511.44,856.099L1511.44,847.543C1504.91,847.279 1498.64,847.236 1492.63,847.411C1486.62,847.587 1481.29,847.981 1476.65,848.596C1472.02,849.21 1468.33,850.088 1465.58,851.229C1462.84,852.37 1461.47,853.818 1461.47,855.573C1461.47,858.03 1463.21,859.939 1466.69,861.299C1470.17,862.66 1474.97,863.34 1481.08,863.34Z" style="fill:rgb(223,52,124);fill-rule:nonzero;"/>
                <path d="M1629.1,854.256C1629.1,857.328 1630.05,859.566 1631.95,860.97C1633.85,862.374 1636.91,863.076 1641.12,863.076C1643.65,863.076 1646.13,862.989 1648.56,862.813C1650.98,862.638 1653.99,862.243 1657.57,861.628L1662,875.056C1658.62,875.758 1653.46,876.46 1646.5,877.162C1639.54,877.864 1632.37,878.215 1624.99,878.215C1612.97,878.215 1603.8,877.053 1597.48,874.727C1591.15,872.401 1587.99,868.562 1587.99,863.208L1587.99,784.223L1629.1,784.223L1629.1,854.256Z" style="fill:rgb(223,52,124);fill-rule:nonzero;"/>
                <path d="M1663.26,810.551L1685.09,810.551L1685.09,798.177L1726.2,793.306L1726.2,810.551L1764.79,810.551L1764.79,825.032L1726.2,825.032L1726.2,850.307C1726.2,854.871 1727.31,858.14 1729.53,860.115C1731.74,862.089 1735.9,863.076 1742.02,863.076C1746.24,863.076 1749.87,862.901 1752.93,862.55C1755.99,862.199 1759.41,861.672 1763.21,860.97L1770.49,874.134C1764.79,875.275 1758.15,876.241 1750.56,877.031C1742.97,877.82 1735.27,878.215 1727.47,878.215C1712.92,878.215 1702.22,876.658 1695.37,873.542C1688.51,870.427 1685.09,865.314 1685.09,858.206L1685.09,825.032L1663.26,825.032L1663.26,810.551Z" style="fill:rgb(223,52,124);fill-rule:nonzero;"/>
                <path d="M1886.88,876.372L1886.88,838.986C1886.88,833.632 1885.09,829.771 1881.5,827.401C1877.92,825.032 1871.38,823.847 1861.89,823.847C1854.93,823.847 1848.56,824.834 1842.76,826.809C1836.96,828.784 1833.11,831.307 1831.21,834.378L1831.21,876.372L1790.1,876.372L1790.1,784.223L1831.21,784.223L1831.21,817.923L1832.48,817.923C1837.54,815.115 1843.76,812.877 1851.14,811.209C1858.52,809.542 1867.9,808.708 1879.29,808.708C1887.3,808.708 1894.36,809.147 1900.48,810.025C1906.59,810.902 1911.71,812.35 1915.82,814.369C1919.93,816.387 1922.99,819.13 1924.99,822.596C1926.99,826.063 1928,830.341 1928,835.432L1928,876.372L1886.88,876.372Z" style="fill:rgb(223,52,124);fill-rule:nonzero;"/>
            </g>
        </g>
    </g>
</svg>
